<svg width="120" height="120" viewBox="0 0 120 120" fill="none" xmlns="http://www.w3.org/2000/svg">
<g clip-path="url(#clip0_1_132)">
<path d="M38.1079 14.5209L37.1792 12.121L37.9473 11.8172C38.2367 10.3475 37.9228 8.42928 37.0056 6.06264L36.5109 4.76069L41.3324 2.89893L43.8842 9.50844L44.8433 9.13956L45.6418 11.5872L44.9474 11.8563L44.3138 10.2158L38.3336 12.5203L38.8153 14.2475L38.1079 14.5209ZM38.8761 11.4831L43.0423 9.87299L40.7856 4.00557L37.5958 5.23373L37.9473 6.17547C38.3132 7.11437 38.5865 8.08677 38.7632 9.07881C38.9385 9.86194 38.9767 10.6695 38.8761 11.4657V11.4831Z" fill="white"/>
<path d="M46.1193 9.69944L44.4875 1.97024L45.3555 1.78798L46.7095 8.20221L49.9731 0.824543L50.802 0.65094L52.4294 8.38013L51.5614 8.56241L50.2074 2.14818L46.9569 9.52585L46.1193 9.69944Z" fill="white"/>
<path d="M54.3648 8.13699L53.9308 0.251565L57.2898 0.0736312C57.661 0.023686 58.0384 0.0502897 58.3989 0.151797C58.7594 0.253305 59.0953 0.42756 59.3859 0.663839C59.5604 0.825166 59.7012 1.01944 59.8003 1.23544C59.8993 1.45144 59.9547 1.68491 59.9631 1.92239C59.9972 2.32015 59.9031 2.71837 59.6946 3.05882C59.4861 3.39928 59.1742 3.66409 58.8044 3.81454C59.9617 4.10386 60.5591 4.71578 60.5967 5.65028C60.6248 5.95657 60.5759 6.265 60.4547 6.54766C60.3334 6.83032 60.1436 7.07826 59.9024 7.26902C59.3097 7.71239 58.5898 7.95285 57.8496 7.95472L54.3648 8.13699ZM55.0157 3.71907L57.3462 3.59755C57.816 3.59946 58.2734 3.44698 58.6482 3.16357C58.804 3.03225 58.9251 2.86458 59.0008 2.67536C59.0765 2.48614 59.1044 2.28119 59.0821 2.07862C59.0794 1.89648 59.032 1.71779 58.9443 1.55817C58.8565 1.39854 58.731 1.26284 58.5787 1.16293C58.1852 0.934535 57.7292 0.837255 57.2768 0.885173L54.8769 1.01103L55.0157 3.71907ZM55.2023 7.29073L57.8496 7.15185C58.351 7.15886 58.8417 7.00694 59.2514 6.71787C59.4122 6.59051 59.5386 6.42488 59.6189 6.23612C59.6993 6.04736 59.7311 5.84148 59.7114 5.63727C59.7092 5.43772 59.6538 5.24238 59.5508 5.07147C59.4478 4.90055 59.3009 4.76027 59.1255 4.66514C58.6354 4.42652 58.0873 4.33315 57.5458 4.39607L55.0548 4.52628L55.2023 7.29073Z" fill="white"/>
<path d="M62.2242 7.85505L63.0271 0L63.9168 0.0868014L63.2484 6.59651L68.6081 0.555495L69.45 0.642296L68.6472 8.49735L67.7792 8.41055L68.4475 1.90084L63.0965 7.94185L62.2242 7.85505Z" fill="white"/>
<path d="M72.592 9.4217L74.328 2.55612L71.7979 1.90081L72.0018 1.11096L78.0125 2.6516L77.8128 3.4371L75.2437 2.78179L73.5077 9.64737L72.592 9.4217Z" fill="white"/>
<path d="M77.3616 10.741L80.4342 3.4632L81.2544 3.81038L78.7026 9.85139L85.5985 5.64612L86.3797 5.97595L83.3071 13.2538L82.4956 12.911L85.0474 6.86995L78.1601 11.0796L77.3616 10.741Z" fill="white"/>
<path d="M88.0112 16.183C87.555 15.9156 87.1605 15.5546 86.8538 15.1238C86.5471 14.6929 86.3352 14.202 86.2319 13.6833C86.0351 12.6288 86.2424 11.539 86.8125 10.6303C87.3826 9.72171 88.2738 9.06091 89.3088 8.77934C89.8219 8.64501 90.3575 8.62003 90.8808 8.706C91.4041 8.79198 91.9036 8.987 92.3467 9.27841C92.8487 9.57113 93.2811 9.96946 93.6139 10.4458C93.9132 10.918 94.1344 11.4353 94.2692 11.9778L93.436 12.2035C93.3402 11.749 93.1556 11.318 92.8926 10.9352C92.6297 10.5524 92.2938 10.2253 91.904 9.97278C91.5615 9.74777 91.1745 9.59913 90.7693 9.53698C90.3642 9.47482 89.9505 9.50062 89.5562 9.61259C88.7389 9.85871 88.0397 10.3952 87.5905 11.121C87.1413 11.8468 86.9729 12.7118 87.1172 13.5531C87.1892 13.9563 87.347 14.3393 87.5799 14.6762C87.8127 15.0132 88.1152 15.2961 88.4669 15.506C88.8593 15.7613 89.3044 15.9245 89.7688 15.9834C90.2598 16.0261 90.7544 15.9939 91.2357 15.8879L91.4049 16.7255C90.8377 16.8671 90.2494 16.9039 89.669 16.834C89.0754 16.741 88.5095 16.5187 88.0112 16.183Z" fill="white"/>
<path d="M91.2704 18.1273L95.2109 17.3331C94.821 16.8779 94.5841 16.3116 94.5339 15.7143C94.5213 15.4283 94.5655 15.1426 94.6638 14.8738C94.7621 14.6049 94.9127 14.3581 95.1068 14.1477C95.2845 13.9173 95.5082 13.7265 95.7638 13.5875C96.0193 13.4486 96.3011 13.3644 96.591 13.3405C97.0101 13.3287 97.4272 13.4018 97.8173 13.5554C98.2073 13.7091 98.5623 13.94 98.8607 14.2345L101.417 16.4304L96.2699 22.4237L95.5928 21.8421L97.5631 19.5464L95.8272 18.0709L92.0732 18.8303L91.2704 18.1273ZM96.2178 17.3938L98.0579 18.9735L100.228 16.4608L98.3877 14.8767C97.9971 14.4997 97.488 14.2697 96.9469 14.2258C96.7171 14.227 96.4904 14.2781 96.2824 14.3756C96.0744 14.4732 95.8901 14.6148 95.7423 14.7907C95.5945 14.9666 95.4867 15.1725 95.4264 15.3942C95.3661 15.6159 95.3548 15.848 95.3932 16.0745C95.5078 16.5962 95.7991 17.0622 96.2178 17.3938Z" fill="white"/>
<path d="M97.8367 26.4772L99.8937 24.9279L100.38 25.5789C101.867 25.4545 103.623 24.6285 105.648 23.1009L106.751 22.272L109.858 26.4035L104.19 30.6608L104.811 31.481L102.671 32.9219L102.237 32.3273L103.643 31.2684L99.7983 26.1387L98.2967 27.0718L97.8367 26.4772ZM100.983 26.3818L103.669 29.9534L108.686 26.1865L106.629 23.4524L105.809 24.0687C105.006 24.6774 104.145 25.2065 103.24 25.6483C102.536 26.0194 101.774 26.2674 100.987 26.3818H100.983Z" fill="white"/>
<path d="M104.346 32.2665L113.074 31.7804L113.464 32.5225L108.092 39.4054L107.658 38.5375L109.077 36.7495L107.08 32.9435L104.78 33.0823L104.346 32.2665ZM107.927 32.874L109.597 36.0638L112.332 32.5919L107.927 32.874Z" fill="white"/>
<path d="M108.391 40.4599C108.28 40.1274 108.233 39.777 108.252 39.427L108.994 39.3706C108.982 39.6089 109.021 39.847 109.107 40.0693C109.149 40.2019 109.215 40.3255 109.302 40.4339C109.451 40.567 109.63 40.6623 109.823 40.7116C110.146 40.8057 110.482 40.8396 110.817 40.8114C111.392 40.7633 111.962 40.6719 112.523 40.538C113.388 40.3421 114.243 40.1017 115.083 39.8176L116.446 39.3836L118.047 44.2355L110.548 46.7179L110.27 45.8499L116.997 43.6236L115.942 40.4295L115.126 40.6986C114.25 40.9972 113.357 41.2479 112.453 41.4494C111.842 41.5917 111.219 41.6774 110.591 41.7054C110.192 41.7245 109.793 41.6671 109.415 41.5362C109.152 41.455 108.916 41.3052 108.73 41.1022C108.579 40.9101 108.465 40.6925 108.391 40.4599Z" fill="white"/>
<path d="M110.947 48.7577L118.668 47.1302L118.85 47.9982L111.121 49.6256L110.947 48.7577Z" fill="white"/>
<path d="M110.448 63.4828L112.991 63.8647L112.87 64.6676C114.007 65.6484 115.829 66.3283 118.338 66.7073L119.701 66.9112L118.928 72.0192L111.919 70.9603L111.767 71.9758L109.242 71.4594L109.354 70.7216L111.09 70.9863L112.049 64.6502L110.313 64.2162L110.448 63.4828ZM112.722 65.6527L112.054 70.0706L118.255 71.008L118.767 67.6273L117.752 67.4754C116.756 67.3264 115.776 67.0823 114.827 66.7463C114.068 66.5079 113.356 66.1409 112.722 65.6614V65.6527Z" fill="white"/>
<path d="M110.665 72.8307L118.186 75.2437L117.917 76.1116L111.672 74.111L116.476 80.6207L116.216 81.4279L108.686 78.9759L108.955 78.1383L115.196 80.1433L110.422 73.6596L110.665 72.8307Z" fill="white"/>
<path d="M107.935 80.7769L114.988 84.3355L113.46 87.33C113.318 87.6768 113.107 87.991 112.84 88.2536C112.573 88.5163 112.255 88.7218 111.906 88.8576C111.679 88.9286 111.441 88.954 111.204 88.9324C110.967 88.9108 110.737 88.8426 110.526 88.7318C110.165 88.5634 109.866 88.2841 109.674 87.9345C109.482 87.5848 109.407 87.183 109.459 86.7875C108.651 87.6555 107.823 87.8595 106.976 87.4298C106.697 87.3015 106.453 87.106 106.268 86.8606C106.082 86.6152 105.96 86.3277 105.913 86.0237C105.825 85.288 105.977 84.5436 106.347 83.9016L107.935 80.7769ZM108.252 81.9226L107.059 84.2922C106.808 84.7284 106.702 85.2327 106.755 85.733C106.786 85.9361 106.868 86.1281 106.992 86.2918C107.116 86.4554 107.28 86.5855 107.467 86.6704C107.642 86.7667 107.839 86.815 108.039 86.8104C108.238 86.8058 108.433 86.7485 108.604 86.6443C109.051 86.3351 109.403 85.9066 109.619 85.4075L110.743 83.1812L108.252 81.9226ZM111.446 83.537L110.396 85.6201C110.165 86.0282 110.072 86.5002 110.131 86.9655C110.168 87.1667 110.253 87.356 110.38 87.5171C110.506 87.6781 110.669 87.806 110.856 87.8898C111.017 87.9753 111.197 88.0201 111.379 88.0201C111.561 88.0201 111.741 87.9753 111.902 87.8898C112.299 87.6627 112.611 87.3123 112.792 86.8917L113.877 84.7478L111.446 83.537Z" fill="white"/>
<path d="M104.286 87.7206L110.7 92.3295L110.179 93.0542L104.854 89.2308L107.428 96.8776L106.95 97.5719L100.519 92.9717L101.031 92.26L106.356 96.0834L103.778 88.4366L104.286 87.7206Z" fill="white"/>
<path d="M97.7671 95.9357L102.853 100.87L104.698 98.9649L105.284 99.5334L100.944 103.986L100.358 103.418L102.207 101.517L97.1205 96.5824L97.7671 95.9357Z" fill="white"/>
<path d="M94.2563 99.4162L99.0301 105.692L98.3227 106.234L94.3387 101.026L94.5774 109.098L93.9308 109.615L89.131 103.339L89.8297 102.806L93.8136 108.013L93.5706 99.9457L94.2563 99.4162Z" fill="white"/>
<path d="M84.2399 105.991C84.6965 105.73 85.2028 105.568 85.7261 105.515C86.2494 105.462 86.778 105.519 87.2777 105.683C88.2936 106.032 89.1405 106.751 89.6497 107.697C90.1588 108.643 90.2928 109.746 90.0248 110.787C89.8885 111.302 89.6449 111.782 89.3098 112.197C88.9747 112.611 88.5558 112.95 88.0806 113.191C87.5755 113.479 87.0148 113.657 86.4358 113.712C85.8779 113.74 85.319 113.676 84.7824 113.521L84.9993 112.687C85.8936 112.972 86.8641 112.891 87.6987 112.462C88.0632 112.275 88.3834 112.012 88.6379 111.691C88.8924 111.369 89.0753 110.998 89.1742 110.6C89.3641 109.767 89.2442 108.893 88.8369 108.141C88.4297 107.39 87.7628 106.812 86.9609 106.516C86.5749 106.38 86.1642 106.328 85.7563 106.363C85.3484 106.398 84.9528 106.52 84.5957 106.72C84.1828 106.937 83.8227 107.242 83.5412 107.614C83.2619 108.014 83.044 108.452 82.8945 108.916L82.083 108.647C82.2442 108.091 82.4996 107.567 82.8381 107.098C83.2199 106.632 83.6981 106.254 84.2399 105.991Z" fill="white"/>
<path d="M80.9459 107.857L79.6787 111.672C80.2653 111.559 80.8725 111.634 81.4146 111.885C81.6693 112.016 81.8956 112.196 82.0803 112.415C82.2651 112.634 82.4046 112.887 82.4909 113.161C82.6034 113.43 82.6584 113.719 82.6524 114.01C82.6464 114.302 82.5796 114.589 82.4562 114.853C82.2583 115.222 81.9879 115.547 81.6612 115.809C81.3346 116.07 80.9584 116.264 80.5553 116.376L77.3786 117.509L74.7313 110.066L75.5689 109.767L76.5844 112.618L78.7196 111.854L79.9174 108.222L80.9459 107.857ZM79.1275 112.501L76.8405 113.317L77.9558 116.441L80.2385 115.63C80.7602 115.478 81.2128 115.15 81.5188 114.701C81.6324 114.501 81.701 114.279 81.7199 114.05C81.7388 113.821 81.7075 113.591 81.6281 113.375C81.5488 113.159 81.4233 112.964 81.2605 112.801C81.0977 112.639 80.9015 112.514 80.6855 112.436C80.1743 112.277 79.6237 112.3 79.1275 112.501Z" fill="white"/>
<path d="M70.4438 109.411L70.7606 111.967L69.9534 112.067C69.3197 113.424 69.1577 115.361 69.4673 117.878L69.6366 119.245L64.5113 119.879L63.6433 112.848L62.6234 112.974L62.4412 110.405L63.1789 110.314L63.3959 112.05L69.7581 111.264L69.6973 109.498L70.4438 109.411ZM68.9552 112.188L64.5243 112.74L65.2881 118.963L68.6818 118.529L68.556 117.513C68.4289 116.506 68.3998 115.489 68.4692 114.475C68.5021 113.691 68.6664 112.918 68.9552 112.188Z" fill="white"/>
<path d="M62.1765 112.18L58.2707 119.991L57.4765 119.965L54.1696 111.889L55.1287 111.924L55.9966 114.042L60.293 114.198L61.3042 112.145L62.1765 112.18ZM59.8721 114.983L56.2744 114.853L57.9235 118.946L59.8721 114.983Z" fill="white"/>
<path d="M53.067 111.633C53.4126 111.701 53.7423 111.834 54.0391 112.023L53.718 112.696C53.5164 112.567 53.2903 112.482 53.054 112.444C52.9178 112.418 52.7779 112.418 52.6417 112.444C52.451 112.503 52.2791 112.611 52.1426 112.757C51.8993 112.99 51.7021 113.267 51.5611 113.573C51.3194 114.095 51.1164 114.635 50.9535 115.187C50.697 116.044 50.4841 116.913 50.3156 117.791L50.0335 119.197L45.021 118.142L46.579 110.4L47.447 110.578L46.0452 117.522L49.3435 118.186L49.5127 117.344C49.6875 116.434 49.9121 115.534 50.1854 114.649C50.3662 114.051 50.6 113.47 50.8841 112.913C51.0664 112.557 51.3137 112.237 51.6132 111.971C51.8159 111.784 52.0644 111.654 52.3336 111.594C52.5783 111.561 52.8271 111.574 53.067 111.633Z" fill="white"/>
<path d="M44.5784 109.723L42.1654 117.244L41.2975 116.971L43.7321 109.463L44.5784 109.723Z" fill="white"/>
<path d="M32.0495 101.986L30.4524 104.004L29.8145 103.496C28.3997 103.993 26.9039 105.236 25.3271 107.224L24.4592 108.3L20.4102 105.088L24.8194 99.5378L24.0165 98.8999L25.7221 96.9687L26.3036 97.4331L25.21 98.8088L30.2268 102.797L31.4463 101.517L32.0495 101.986ZM29.0116 102.853L25.5137 100.076L21.6079 104.989L24.2856 107.115L24.9235 106.308C25.5501 105.52 26.2506 104.793 27.0153 104.138C27.6093 103.604 28.2904 103.175 29.029 102.871L29.0116 102.853Z" fill="white"/>
<path d="M23.8343 97.524L18.0103 102.853L17.407 102.198L22.2416 97.7714L14.2216 98.7175L13.6444 98.0925L19.4684 92.7589L20.063 93.4099L15.2284 97.8365L23.2397 96.8817L23.8343 97.524Z" fill="white"/>
<path d="M18.2924 91.2097L11.7089 95.5755L9.85146 92.772C9.62243 92.4774 9.45581 92.1392 9.3618 91.778C9.26779 91.4169 9.24834 91.0404 9.30464 90.6715C9.40681 90.2028 9.69091 89.7938 10.0945 89.5345C10.4195 89.303 10.81 89.1815 11.209 89.1877C11.608 89.1939 11.9945 89.3276 12.3121 89.5692C11.9707 88.4409 12.1949 87.6149 12.9848 87.0912C13.2331 86.9134 13.5216 86.7998 13.8244 86.7605C14.1273 86.7211 14.4352 86.7572 14.7207 86.8655C15.4041 87.1531 15.9774 87.652 16.3568 88.289L18.2924 91.2097ZM14.1565 92.8979L12.8546 90.9536C12.6179 90.5485 12.2529 90.234 11.8174 90.0596C11.6249 89.9909 11.4184 89.9708 11.2162 90.0011C11.0141 90.0314 10.8226 90.1111 10.6587 90.2332C10.5023 90.3271 10.3717 90.4583 10.2786 90.6151C10.1854 90.7719 10.1326 90.9493 10.1249 91.1316C10.1289 91.5897 10.2812 92.0343 10.5588 92.3988L11.9085 94.4038L14.1565 92.8979ZM17.138 90.9233L15.6711 88.7099C15.4162 88.2771 15.0302 87.9366 14.5688 87.7378C14.3781 87.6631 14.1717 87.6375 13.9685 87.6633C13.7653 87.689 13.5718 87.7654 13.4058 87.8854C13.2345 87.9893 13.0939 88.1369 12.9986 88.3131C12.9033 88.4893 12.8566 88.6877 12.8633 88.8879C12.9095 89.4309 13.108 89.9499 13.4361 90.3851L14.8162 92.4639L17.138 90.9233Z" fill="white"/>
<path d="M14.0784 84.5958L6.90038 87.8897L6.52716 87.0781L12.4901 84.3484L4.53084 82.7904L4.17932 82.0223L11.3617 78.7283L11.7262 79.5312L5.76769 82.2609L13.6878 83.8059L14.0784 84.5958Z" fill="white"/>
<path d="M10.1725 74.8704L3.36337 76.8363L4.09679 79.3838L3.31563 79.6094L1.57971 73.6465L2.36087 73.4426L3.0943 75.99L9.90346 74.0284L10.1725 74.8704Z" fill="white"/>
<path d="M8.87054 70.0879L1.05889 71.1207L0.941723 70.2528L7.45143 69.3848L0.334139 65.5701L0.221313 64.7325L8.05466 63.6953L8.1675 64.5633L1.65779 65.4312L8.77507 69.2373L8.87054 70.0879Z" fill="white"/>
<path d="M8.16751 58.1359C8.16929 58.665 8.05881 59.1885 7.84336 59.6718C7.62791 60.155 7.31239 60.5871 6.91764 60.9394C6.11027 61.6484 5.06513 62.0265 3.99106 61.9984C2.917 61.9702 1.89311 61.5378 1.124 60.7876C0.744709 60.4132 0.448578 59.963 0.254908 59.4665C0.0612383 58.97 -0.0256204 58.4382 -1.33645e-05 57.9059C-0.000511595 57.3236 0.123793 56.7479 0.364529 56.2177C0.618132 55.7203 0.950852 55.2674 1.34967 54.8767L1.96592 55.4799C1.27617 56.116 0.865888 56.999 0.824547 57.9363C0.803007 58.3445 0.869349 58.7525 1.01909 59.1329C1.16883 59.5132 1.39848 59.857 1.69251 60.1409C2.32067 60.7194 3.13795 61.0495 3.99169 61.0695C4.84543 61.0894 5.67724 60.7979 6.33176 60.2494C6.64436 59.981 6.89507 59.648 7.06664 59.2734C7.2382 58.8988 7.32655 58.4915 7.32558 58.0795C7.34679 57.6138 7.26221 57.1494 7.07821 56.7211C6.86635 56.2757 6.58673 55.8658 6.24931 55.506L6.88293 54.9331C7.28911 55.346 7.61831 55.828 7.85504 56.3566C8.08794 56.9198 8.1946 57.5271 8.16751 58.1359Z" fill="white"/>
<path d="M8.17631 54.3475L5.48997 51.3574C5.29946 51.9252 4.93314 52.4177 4.44407 52.7635C4.20513 52.9218 3.93669 53.0304 3.65482 53.0826C3.37295 53.1348 3.08344 53.1296 2.80363 53.0673C2.51426 53.0317 2.2355 52.9361 1.98517 52.7866C1.73484 52.6372 1.51844 52.4371 1.3498 52.1993C1.12759 51.8449 0.97922 51.4493 0.913596 51.0361C0.847972 50.623 0.866443 50.2009 0.967896 49.7951L1.5581 46.4751L9.33504 47.8595L9.1788 48.7275L6.2017 48.198L5.80243 50.4287L8.36726 53.2712L8.17631 54.3475ZM5.02995 50.4417L5.46393 48.0504L2.2004 47.4689L1.76642 49.8558C1.6404 50.3848 1.70016 50.941 1.93566 51.4312C2.04681 51.632 2.20303 51.8044 2.39204 51.9346C2.58105 52.0649 2.7977 52.1496 3.02496 52.182C3.25461 52.2312 3.49273 52.2246 3.71929 52.1626C3.94585 52.1007 4.15423 51.9853 4.3269 51.8261C4.70935 51.4668 4.95742 50.9875 5.02995 50.4677V50.4417Z" fill="white"/>
<path d="M12.0256 44.457L9.65175 43.4631L9.96422 42.7167C9.09626 41.4871 7.49343 40.3862 5.15572 39.4141L3.88416 38.8846L5.87613 34.1108L12.4162 36.8363L12.8111 35.8902L15.1329 37.0055L14.8465 37.6912L13.2104 37.0185L10.7454 42.9337L12.3077 43.7582L12.0256 44.457ZM10.3505 41.788L12.0864 37.6651L6.26671 35.2522L4.96476 38.4073L5.91084 38.8022C6.84254 39.1886 7.73487 39.6638 8.57549 40.2213C9.25211 40.6385 9.85242 41.1684 10.3505 41.788Z" fill="white"/>
<path d="M13.7225 35.9033L8.87061 28.6385L9.30459 27.9311L17.9842 29.0811L17.4764 29.897L15.2154 29.5759L12.9413 33.2256L14.2173 35.1265L13.7225 35.9033ZM12.4206 32.5053L14.3214 29.4674L9.95556 28.8598L12.4206 32.5053Z" fill="white"/>
<path d="M18.7393 28.2824C18.5086 28.5472 18.2304 28.7665 17.9191 28.9291L17.4851 28.3171C17.6949 28.211 17.8809 28.0634 18.0319 27.8832C18.1247 27.7807 18.1969 27.6614 18.2446 27.5316C18.2867 27.3359 18.2777 27.1327 18.2185 26.9414C18.132 26.6132 17.9848 26.3041 17.7846 26.0301C17.4512 25.5602 17.0827 25.1163 16.6823 24.7021C16.0755 24.0556 15.4353 23.4413 14.7641 22.862L13.6835 21.9159L17.0555 18.0709L22.9967 23.2786L22.4065 23.947L17.1162 19.26L14.8856 21.7988L15.5322 22.3629C16.2345 22.9689 16.9038 23.6121 17.5372 24.2898C17.9673 24.7451 18.3565 25.2374 18.7003 25.761C18.9122 26.0983 19.0594 26.4721 19.1343 26.8633C19.1946 27.1319 19.1842 27.4115 19.1039 27.6749C19.0191 27.8973 18.8957 28.1029 18.7393 28.2824Z" fill="white"/>
<path d="M24.6067 21.8596L19.2861 16.0312L19.9458 15.4323L25.2751 21.2563L24.6067 21.8596Z" fill="white"/>
</g>
<defs>
<clipPath id="clip0_1_132">
<rect width="119.696" height="120" fill="white"/>
</clipPath>
</defs>
</svg>
